<svg width="110" height="110" viewBox="0 0 110 110" fill="none" xmlns="http://www.w3.org/2000/svg">
<circle cx="55" cy="55" r="55" fill="#C8102E"/>
<circle cx="55" cy="55" r="54.5" stroke="#BD2941" stroke-opacity="0.38"/>
<circle cx="55" cy="55" r="46" stroke="white" stroke-opacity="0.38" stroke-dasharray="2 2"/>
<path d="M35.1308 66.7486L36.0932 65.6578C35.8612 65.453 35.6753 65.2012 35.548 64.9192C35.4207 64.6371 35.3548 64.3312 35.3547 64.0217V38.5709C35.3561 37.3667 36.332 36.3908 37.5362 36.3894H73.8945C75.0987 36.3908 76.0747 37.3667 76.076 38.5709V64.0217C76.0747 65.2259 75.0987 66.2019 73.8945 66.2032H61.5327V67.6575H73.8945C75.9016 67.6553 77.5281 66.0288 77.5304 64.0217V38.5709C77.5281 36.5638 75.9016 34.9373 73.8945 34.9351H37.5362C35.5292 34.9373 33.9027 36.5638 33.9004 38.5709V64.0217C33.9005 64.5375 34.0103 65.0473 34.2224 65.5174C34.4345 65.9876 34.7441 66.4072 35.1308 66.7486Z" fill="white"/>
<path d="M37.5361 37.8438H38.9905V39.2981H37.5361V37.8438ZM40.4448 37.8438H41.8991V39.2981H40.4448V37.8438ZM43.3535 37.8438H44.8078V39.2981H43.3535V37.8438ZM37.5361 40.7524H73.8945V42.2067H37.5361V40.7524ZM68.8043 45.1154C65.9931 45.1154 63.7141 47.3944 63.7141 50.2056C63.7141 53.0168 65.9931 55.2957 68.8043 55.2957C71.6155 55.2957 73.8945 53.0168 73.8945 50.2056C73.8913 47.3957 71.6142 45.1186 68.8043 45.1154ZM68.8043 53.8414C66.7963 53.8414 65.1685 52.2136 65.1685 50.2056C65.1685 48.1976 66.7963 46.5697 68.8043 46.5697C70.8123 46.5697 72.4401 48.1976 72.4401 50.2056C72.4379 52.2127 70.8114 53.8391 68.8043 53.8414Z" fill="white"/>
<path d="M70.4715 48.2369L68.077 50.6314L67.1369 49.6912L66.1085 50.7196L67.5628 52.1739C67.6303 52.2415 67.7105 52.295 67.7987 52.3316C67.8869 52.3681 67.9815 52.3869 68.077 52.3869C68.1725 52.3869 68.2671 52.3681 68.3553 52.3316C68.4435 52.295 68.5237 52.2415 68.5912 52.1739L71.4999 49.2653L70.4715 48.2369ZM65.1683 56.7499H72.44V58.2042H65.1683V56.7499ZM65.1683 59.6586H72.44V61.1129H65.1683V59.6586ZM55.7152 45.1152C52.9039 45.1152 50.625 47.3942 50.625 50.2054C50.625 53.0166 52.9039 55.2956 55.7152 55.2956C58.5264 55.2956 60.8053 53.0166 60.8053 50.2054C60.8021 47.3955 58.5251 45.1184 55.7152 45.1152ZM55.7152 53.8412C53.7072 53.8412 52.0793 52.2134 52.0793 50.2054C52.0793 48.1974 53.7072 46.5696 55.7152 46.5696C57.7231 46.5696 59.351 48.1974 59.351 50.2054C59.3487 52.2125 57.7222 53.839 55.7152 53.8412Z" fill="white"/>
<path d="M57.3826 48.237L54.9881 50.6315L54.048 49.6913L53.0196 50.7197L54.4739 52.174C54.5415 52.2416 54.6216 52.2951 54.7098 52.3317C54.7981 52.3682 54.8926 52.387 54.9881 52.387C55.0836 52.387 55.1782 52.3682 55.2664 52.3317C55.3546 52.2951 55.4348 52.2416 55.5023 52.174L58.411 49.2654L57.3826 48.237ZM52.0795 56.75H59.3511V58.2043H52.0795V56.75ZM52.0795 59.6587H59.3511V61.113H52.0795V59.6587ZM42.6263 46.5697C43.2267 46.5696 43.8177 46.7183 44.3465 47.0024C44.8754 47.2866 45.3256 47.6974 45.6569 48.1981L46.8679 47.393C45.315 45.0501 42.1568 44.4096 39.8139 45.9625C39.1135 46.4267 38.5389 47.0572 38.1414 47.7976C37.744 48.5379 37.536 49.3652 37.5361 50.2055C37.5361 50.4895 37.5597 50.773 37.6065 51.0531L39.0408 50.8124C39.0073 50.6119 38.9905 50.4089 38.9905 50.2055C38.9927 48.1984 40.6192 46.572 42.6263 46.5697Z" fill="white"/>
<path d="M34.6276 78.565H54.9882C55.105 78.5651 55.22 78.5369 55.3235 78.4827C57.549 78.1431 59.5876 76.7713 60.5429 74.9292H64.4414C64.5369 74.9292 64.6314 74.9104 64.7197 74.8739C64.8079 74.8373 64.8881 74.7838 64.9556 74.7162L65.8957 73.776L66.8359 74.7162C66.9034 74.7838 66.9836 74.8373 67.0718 74.8739C67.16 74.9104 67.2546 74.9292 67.3501 74.9292H68.8044C68.8999 74.9292 68.9944 74.9104 69.0827 74.8739C69.1709 74.8373 69.2511 74.7838 69.3186 74.7162L70.2587 73.776L71.1989 74.7162C71.2664 74.7838 71.3466 74.8373 71.4348 74.8739C71.523 74.9104 71.6176 74.9292 71.7131 74.9292H73.1674C73.2871 74.9292 73.4049 74.8996 73.5105 74.8432C73.616 74.7867 73.706 74.705 73.7724 74.6054L75.2267 72.4239C75.3064 72.3045 75.3489 72.1641 75.3489 72.0205C75.3489 71.877 75.3064 71.7366 75.2267 71.6171L73.7724 69.4356C73.706 69.336 73.616 69.2544 73.5105 69.1979C73.4049 69.1414 73.2871 69.1119 73.1674 69.1119H60.5429C59.4366 66.9795 56.8798 65.476 54.2611 65.476C52.9669 65.4747 51.7018 65.8592 50.6273 66.5806L50.1299 66.3825C50.0614 66.356 49.9946 66.3252 49.93 66.2902C49.9241 66.2869 49.918 66.2839 49.9118 66.2811C48.5895 65.6087 48.0628 63.9916 48.7352 62.6694C48.8409 62.4617 48.973 62.2687 49.1284 62.0952C50.0928 61.0289 50.6263 59.6421 50.6252 58.2044V55.5066C50.6252 53.1849 49.3122 51.0419 47.2824 50.048C46.5686 49.6951 45.787 49.5008 44.9911 49.4784C44.2377 49.4528 43.4867 49.5768 42.7814 49.8431C42.1805 50.0618 41.6222 50.3832 41.1313 50.793C40.464 51.3388 39.926 52.0257 39.5559 52.8042C39.1857 53.5828 38.9927 54.4337 38.9906 55.2957V58.2044C38.9932 59.6418 39.5265 61.0276 40.4881 62.096C41.3092 63.014 41.4008 64.3729 40.71 65.3927C40.707 65.3971 40.704 65.4018 40.701 65.4063C40.4557 65.7819 40.1126 66.0833 39.7086 66.2782C39.7008 66.282 39.6931 66.286 39.6855 66.2902C39.6208 66.3252 39.554 66.356 39.4855 66.3825L39.4764 66.386L36.1804 67.703C35.5057 67.9732 34.9276 68.4398 34.5211 69.0424C34.1146 69.6449 33.8984 70.3556 33.9004 71.0825V77.8379C33.9004 78.0307 33.977 78.2157 34.1134 78.352C34.2498 78.4884 34.4347 78.565 34.6276 78.565ZM54.2611 66.9304C56.4585 66.9304 58.6695 68.2982 59.4044 70.1117C59.4587 70.246 59.5519 70.361 59.672 70.442C59.792 70.5229 59.9336 70.5662 60.0784 70.5662H72.7783L73.7478 72.0205L72.7783 73.4749H72.0142L70.7729 72.2335C70.7054 72.166 70.6252 72.1124 70.537 72.0759C70.4488 72.0393 70.3542 72.0205 70.2587 72.0205C70.1632 72.0205 70.0687 72.0393 69.9804 72.0759C69.8922 72.1124 69.8121 72.166 69.7445 72.2335L68.5033 73.4749H67.6512L66.4099 72.2335C66.3424 72.166 66.2622 72.1124 66.174 72.0759C66.0858 72.0393 65.9912 72.0205 65.8957 72.0205C65.8002 72.0205 65.7057 72.0393 65.6174 72.0759C65.5292 72.1124 65.4491 72.166 65.3815 72.2335L64.1403 73.4749H60.0784C59.9336 73.4749 59.792 73.5181 59.672 73.5991C59.5519 73.6801 59.4587 73.7951 59.4044 73.9293C58.6696 75.7433 56.4585 77.1107 54.2611 77.1107C51.4498 77.1107 49.1709 74.8318 49.1709 72.0205C49.1709 69.2093 51.4498 66.9304 54.2611 66.9304ZM35.3547 71.0825C35.3534 70.6461 35.4831 70.2194 35.7269 69.8575C35.9708 69.4956 36.3177 69.2153 36.7226 69.0527L40.0124 67.7382C40.1326 67.6916 40.2498 67.6377 40.3635 67.5768C40.993 67.2661 41.5285 66.7934 41.9149 66.2072C42.9804 64.6331 42.837 62.5356 41.5672 61.121C41.2849 60.8096 41.0503 60.458 40.871 60.0778L40.8669 60.0693C40.5863 59.4878 40.442 58.85 40.4449 58.2044V55.2957C40.4471 54.6467 40.5933 54.0064 40.8732 53.4208C41.153 52.8353 41.5594 52.3192 42.063 51.9099C42.4282 51.6054 42.8437 51.3669 43.2909 51.2054C43.8187 51.0055 44.3811 50.9126 44.9452 50.9321C45.5339 50.9483 46.1121 51.0919 46.6401 51.3528C48.1777 52.1057 49.1709 53.736 49.1709 55.5066V58.2044C49.1718 59.2812 48.7725 60.32 48.0505 61.119C46.5218 62.8194 46.6611 65.4371 48.3616 66.9658C48.6298 67.207 48.9283 67.412 49.2497 67.5757C49.2985 67.6018 49.3475 67.6254 49.3962 67.6484C46.9811 70.3285 47.1959 74.4589 49.876 76.8739C49.9664 76.9554 50.0591 77.0344 50.1539 77.1107H35.3547V71.0825Z" fill="white"/>
<path d="M52.8065 74.2021C54.0113 74.2021 54.988 73.2254 54.988 72.0206C54.988 70.8158 54.0113 69.8391 52.8065 69.8391C51.6017 69.8391 50.625 70.8158 50.625 72.0206C50.6264 73.2249 51.6022 74.2007 52.8065 74.2021ZM52.8065 71.2934C52.9503 71.2934 53.0909 71.3361 53.2105 71.416C53.3301 71.4959 53.4233 71.6095 53.4783 71.7423C53.5334 71.8752 53.5478 72.0214 53.5197 72.1625C53.4916 72.3035 53.4224 72.4331 53.3207 72.5348C53.219 72.6365 53.0894 72.7057 52.9484 72.7338C52.8073 72.7619 52.6611 72.7475 52.5282 72.6924C52.3954 72.6374 52.2818 72.5442 52.2019 72.4246C52.122 72.305 52.0793 72.1644 52.0793 72.0206C52.0796 71.8278 52.1563 71.643 52.2926 71.5067C52.4289 71.3704 52.6137 71.2937 52.8065 71.2934Z" fill="#BD2941"/>
</svg>
