<svg width="110" height="110" viewBox="0 0 110 110" fill="none" xmlns="http://www.w3.org/2000/svg">
<circle cx="55" cy="55" r="55" fill="#C8102E"/>
<circle cx="55" cy="55" r="54.5" stroke="#BD2941" stroke-opacity="0.38"/>
<circle cx="55" cy="55" r="46" stroke="white" stroke-opacity="0.38" stroke-dasharray="2 2"/>
<path d="M68.6817 29.5H44.1483C43.5389 29.5018 42.9549 29.7447 42.524 30.1757C42.093 30.6066 41.8501 31.1906 41.8483 31.8V47.9H38.7816C38.6844 47.8985 38.5879 47.9168 38.498 47.9537L34.6646 49.487C34.522 49.5438 34.3997 49.6422 34.3136 49.7693C34.2275 49.8964 34.1815 50.0465 34.1816 50.2V60.9333C34.1823 61.0596 34.2141 61.1838 34.2743 61.2948C34.3345 61.4058 34.4212 61.5002 34.5266 61.5697L36.8343 63.103C36.9584 63.1883 37.1054 63.2337 37.256 63.2333H41.8483V73.2C41.8501 73.8095 42.093 74.3934 42.524 74.8244C42.9549 75.2553 43.5389 75.4982 44.1483 75.5H68.6817C69.2911 75.4982 69.875 75.2553 70.306 74.8244C70.7369 74.3934 70.9798 73.8095 70.9817 73.2V31.8C70.9798 31.1906 70.7369 30.6066 70.306 30.1757C69.875 29.7447 69.2911 29.5018 68.6817 29.5ZM41.7716 54.0333H41.8483V61.7H37.486L35.715 60.5193V50.7213L38.9273 49.4333H47.9816C48.3883 49.4333 48.7783 49.5949 49.0659 49.8824C49.3534 50.17 49.515 50.56 49.515 50.9667C49.515 51.3733 49.3534 51.7633 49.0659 52.0509C48.7783 52.3385 48.3883 52.5 47.9816 52.5H41.0816C40.8783 52.5 40.6833 52.5808 40.5395 52.7246C40.3957 52.8683 40.315 53.0633 40.315 53.2667C40.3132 53.8761 40.0703 54.4601 39.6393 54.891C39.2084 55.322 38.6244 55.5649 38.015 55.5667V57.1C38.8983 57.0989 39.7543 56.7933 40.4386 56.2347C41.1229 55.676 41.5937 54.8986 41.7716 54.0333ZM69.4483 73.2C69.4483 73.4033 69.3675 73.5984 69.2238 73.7421C69.08 73.8859 68.885 73.9667 68.6817 73.9667H44.1483C43.945 73.9667 43.75 73.8859 43.6062 73.7421C43.4624 73.5984 43.3816 73.4033 43.3816 73.2V54.0333H47.9816C48.795 54.0333 49.575 53.7102 50.1501 53.1351C50.7252 52.56 51.0483 51.78 51.0483 50.9667C51.0483 50.1533 50.7252 49.3733 50.1501 48.7982C49.575 48.2231 48.795 47.9 47.9816 47.9H43.3816V31.8C43.3816 31.5967 43.4624 31.4017 43.6062 31.2579C43.75 31.1141 43.945 31.0333 44.1483 31.0333H68.6817C68.885 31.0333 69.08 31.1141 69.2238 31.2579C69.3675 31.4017 69.4483 31.5967 69.4483 31.8V73.2Z" fill="white"/>
<path d="M56.416 43.3C56.6193 43.3 56.8143 43.2192 56.958 43.0754L61.2951 38.7384L60.211 37.6543L56.416 41.4493L54.7891 39.8224L53.7051 40.9065L55.874 43.0754C56.0177 43.2192 56.2127 43.3 56.416 43.3Z" fill="white"/>
<path d="M63.6302 35.7021L56.7302 32.6354C56.6317 32.5899 56.5244 32.5664 56.4159 32.5664C56.3074 32.5664 56.2001 32.5899 56.1016 32.6354L49.2016 35.7021C49.0663 35.7615 48.9514 35.8592 48.871 35.9832C48.7906 36.1072 48.7483 36.252 48.7492 36.3997V41.3141C48.7489 42.2877 48.955 43.2504 49.3541 44.1385C49.7533 45.0266 50.3362 45.8199 51.0646 46.4661L55.9099 50.7747C56.0498 50.8976 56.2297 50.9654 56.4159 50.9654C56.6021 50.9654 56.782 50.8976 56.9219 50.7747L61.7672 46.4661C62.4956 45.8199 63.0785 45.0266 63.4776 44.1385C63.8767 43.2504 64.0829 42.2877 64.0826 41.3141V36.3997C64.0835 36.252 64.0412 36.1072 63.9608 35.9832C63.8804 35.8592 63.7655 35.7615 63.6302 35.7021ZM62.5492 41.3141C62.5483 42.0716 62.3873 42.8204 62.0768 43.5114C61.7663 44.2024 61.3134 44.82 60.7476 45.3237L56.4159 49.1724L52.0842 45.3237C51.5184 44.82 51.0654 44.2024 50.755 43.5114C50.4445 42.8204 50.2835 42.0716 50.2826 41.3141V36.8981L56.4159 34.1687L62.5492 36.8981V41.3141ZM79.4159 44.8331H77.1159V42.5331C77.1159 41.9231 76.8736 41.3381 76.4422 40.9067C76.0109 40.4754 75.4259 40.2331 74.8159 40.2331C74.2059 40.2331 73.6209 40.4754 73.1896 40.9067C72.7582 41.3381 72.5159 41.9231 72.5159 42.5331V68.5997C72.516 68.6618 72.5237 68.7236 72.5389 68.7837L74.0722 74.9171C74.1138 75.0829 74.2095 75.23 74.3443 75.3351C74.479 75.4403 74.645 75.4974 74.8159 75.4974C74.9868 75.4974 75.1528 75.4403 75.2875 75.3351C75.4223 75.23 75.518 75.0829 75.5596 74.9171L77.0929 68.7837C77.1081 68.7236 77.1158 68.6618 77.1159 68.5997V46.3664H78.6492V53.2664H80.1826V45.5997C80.1826 45.3964 80.1018 45.2014 79.958 45.0576C79.8142 44.9138 79.6192 44.8331 79.4159 44.8331ZM74.8159 71.5744L74.2639 69.3664H75.3679L74.8159 71.5744ZM75.5826 67.8331H74.0492V46.3664H75.5826V67.8331ZM75.5826 44.8331H74.0492V42.5331C74.0492 42.3297 74.13 42.1347 74.2738 41.991C74.4176 41.8472 74.6126 41.7664 74.8159 41.7664C75.0192 41.7664 75.2142 41.8472 75.358 41.991C75.5018 42.1347 75.5826 42.3297 75.5826 42.5331V44.8331ZM46.4492 57.0997H49.5159V58.6331H46.4492V57.0997ZM51.0492 57.0997H66.3826V58.6331H51.0492V57.0997ZM46.4492 61.6997H49.5159V63.2331H46.4492V61.6997ZM51.0492 61.6997H66.3826V63.2331H51.0492V61.6997ZM46.4492 66.2997H49.5159V67.8331H46.4492V66.2997ZM51.0492 66.2997H66.3826V67.8331H51.0492V66.2997ZM46.4492 70.8997H49.5159V72.4331H46.4492V70.8997ZM51.0492 70.8997H66.3826V72.4331H51.0492V70.8997Z" fill="white"/>
</svg>
