<svg width="110" height="110" viewBox="0 0 110 110" fill="none" xmlns="http://www.w3.org/2000/svg">
<circle cx="55" cy="55" r="55" fill="#C8102E"/>
<circle cx="55" cy="55" r="54.5" stroke="#BD2941" stroke-opacity="0.38"/>
<circle cx="55" cy="55" r="46" stroke="white" stroke-opacity="0.38" stroke-dasharray="2 2"/>
<path d="M56.2539 35.6182C55.7981 35.6149 55.4265 35.9816 55.4232 36.4365C55.4199 36.8914 55.7858 37.2631 56.2415 37.2664C56.6964 37.2697 57.0681 36.9038 57.0714 36.4489C57.0747 35.994 56.7088 35.6223 56.2539 35.6182ZM56.2164 40.5627C53.0344 40.5401 50.4285 43.1071 50.4045 46.2881C50.3805 49.4689 52.9489 52.076 56.1298 52.1L56.174 52.1001C59.3347 52.1001 61.9178 49.5408 61.9417 46.3746C61.9657 43.194 59.3974 40.5867 56.2164 40.5627ZM56.1738 50.452L56.1422 50.4519C53.8701 50.4347 52.0354 48.5724 52.0526 46.3004C52.0696 44.0387 53.9146 42.2107 56.1724 42.2107L56.204 42.2108C58.4761 42.228 60.3107 44.0903 60.2936 46.3622C60.2765 48.624 58.4315 50.452 56.1738 50.452ZM59.7687 36.2432C59.34 36.0911 58.8687 36.3156 58.7166 36.7447C58.5646 37.1737 58.7891 37.6447 59.2181 37.7968C62.848 39.0833 65.2671 42.5405 65.2381 46.3995C65.2348 46.8546 65.6009 47.2263 66.0561 47.2298H66.0624C66.5145 47.2298 66.8829 46.8649 66.8863 46.4119C66.9206 41.8507 64.0602 37.7642 59.7687 36.2432Z" fill="white"/>
<path d="M61.2286 63.3439C66.7099 56.2884 70.1355 52.6092 70.1817 46.4363C70.2397 38.6698 63.9368 32.3213 56.1708 32.3213C48.4955 32.3213 42.2209 38.5373 42.1626 46.2262C42.1154 52.5664 45.6046 56.2406 51.1238 63.3428C45.6332 64.1633 42.1626 66.2249 42.1626 68.7466C42.1626 70.4357 43.7239 71.9515 46.5591 73.0146C49.1396 73.9823 52.5536 74.5152 56.1721 74.5152C59.7907 74.5152 63.2047 73.9823 65.7852 73.0146C68.6204 71.9514 70.1817 70.4357 70.1817 68.7465C70.1817 66.2262 66.7143 64.1651 61.2286 63.3439ZM43.8107 46.2386C43.8621 39.4539 49.398 33.9695 56.171 33.9695C63.0241 33.9695 68.5847 39.5724 68.5336 46.4241C68.4898 52.2862 64.8569 55.8988 59.0572 63.4594C58.0227 64.8073 57.0726 66.0817 56.1734 67.3283C55.2768 66.0809 54.3457 64.8294 53.2957 63.4589C47.2562 55.5818 43.766 52.2422 43.8107 46.2386ZM56.1721 72.8671C49.0972 72.8671 43.8107 70.6917 43.8107 68.7466C43.8107 67.3041 46.971 65.4818 52.2846 64.8508C53.4592 66.392 54.489 67.7921 55.499 69.2221C55.5751 69.3297 55.6758 69.4176 55.7928 69.4782C55.9098 69.5389 56.0396 69.5706 56.1714 69.5707H56.1721C56.3038 69.5707 56.4336 69.5391 56.5506 69.4787C56.6675 69.4182 56.7683 69.3306 56.8444 69.2232C57.8449 67.8118 58.9029 66.3771 60.0674 64.8517C65.3761 65.4834 68.5336 67.3051 68.5336 68.7467C68.5335 70.6917 63.2471 72.8671 56.1721 72.8671Z" fill="white"/>
</svg>
