<svg width="106" height="106" viewBox="0 0 106 106" fill="none" xmlns="http://www.w3.org/2000/svg">
<circle cx="53" cy="53" r="53" fill="#C8102E"/>
<circle cx="53" cy="53" r="52.5" stroke="#BD2941" stroke-opacity="0.38"/>
<circle cx="53" cy="53" r="46" stroke="white" stroke-opacity="0.38" stroke-dasharray="2 2"/>
<path d="M79.4522 59.5523L78.5104 51.0751C78.272 48.9282 76.4572 47.3041 74.2972 47.3044H61.9924L60.8794 36.1745C60.5233 32.62 57.3531 30.0272 53.7987 30.3833C50.7364 30.6901 48.3142 33.1121 48.0075 36.1745L46.8986 47.3044H34.5896C32.4299 47.304 30.6152 48.9278 30.3764 51.0742L29.4346 59.5515C29.1757 61.8781 30.8519 63.974 33.1785 64.233C33.3343 64.2503 33.4911 64.259 33.6478 64.2589H43.9197L46.0687 66.4088C46.4615 66.8035 46.9287 67.1165 47.4432 67.3295C47.9577 67.5425 48.5094 67.6514 49.0663 67.6498H59.8206C60.3774 67.6514 60.9291 67.5425 61.4436 67.3295C61.9582 67.1165 62.4253 66.8035 62.8181 66.4088L64.9671 64.2589H75.239C77.5799 64.2592 79.4779 62.3617 79.4782 60.0208C79.4782 59.8642 79.4695 59.7079 79.4522 59.5523ZM49.6961 36.3432C49.9679 33.7214 52.3136 31.8163 54.9354 32.0881C57.182 32.3209 58.9578 34.0966 59.1906 36.3432L60.2926 47.3044H48.5982L49.6961 36.3432ZM61.6228 65.2101C61.3866 65.4472 61.1057 65.6352 60.7963 65.7629C60.4869 65.8907 60.1553 65.9558 59.8206 65.9544H49.0663C48.7321 65.9553 48.4011 65.89 48.0923 65.7623C47.7836 65.6345 47.5032 65.4468 47.2674 65.2101L46.3171 64.2589H62.5697L61.6228 65.2101ZM77.1337 61.7157C76.8965 61.9839 76.6048 62.1982 76.278 62.3444C75.9512 62.4906 75.597 62.5653 75.239 62.5635H33.6478C33.2898 62.5653 32.9356 62.4906 32.6088 62.3444C32.2821 62.1982 31.9903 61.9839 31.7531 61.7157C31.5148 61.4491 31.3352 61.1353 31.2261 60.7947C31.117 60.4541 31.0808 60.0943 31.1199 59.7388L32.0625 51.2616C32.2059 49.9741 33.2942 49 34.5896 48.9998H74.2972C75.5923 49.0005 76.6801 49.9744 76.8234 51.2616L77.7661 59.7388C77.8053 60.0943 77.7692 60.454 77.6602 60.7946C77.5513 61.1352 77.3719 61.449 77.1337 61.7157Z" fill="white"/>
<path d="M54.4436 33.7407C53.039 33.7407 51.9004 34.8793 51.9004 36.2839C51.9004 37.6885 53.039 38.8271 54.4436 38.8271C55.8482 38.8271 56.9868 37.6885 56.9868 36.2839C56.9868 34.8793 55.8482 33.7407 54.4436 33.7407ZM54.4436 37.1316C54.2187 37.1316 54.0031 37.0423 53.8441 36.8833C53.6852 36.7244 53.5958 36.5087 53.5958 36.2839C53.5958 36.0591 53.6852 35.8435 53.8441 35.6845C54.0031 35.5255 54.2187 35.4362 54.4436 35.4362C54.6684 35.4362 54.884 35.5255 55.043 35.6845C55.202 35.8435 55.2913 36.0591 55.2913 36.2839C55.2913 36.5087 55.202 36.7244 55.043 36.8833C54.884 37.0423 54.6684 37.1316 54.4436 37.1316Z" fill="white"/>
</svg>
