<svg width="108" height="108" viewBox="0 0 108 108" fill="none" xmlns="http://www.w3.org/2000/svg">
<circle cx="54" cy="54" r="54" fill="#C8102E"/>
<circle cx="54" cy="54" r="53.5" stroke="#BD2941" stroke-opacity="0.38"/>
<circle cx="54" cy="54" r="46" stroke="white" stroke-opacity="0.38" stroke-dasharray="2 2"/>
<path d="M74.0667 39.7595H68.2V37.1928C68.1986 36.1235 67.7733 35.0984 67.0172 34.3423C66.2611 33.5862 65.236 33.1608 64.1667 33.1595H61.2333C60.164 33.1608 59.1389 33.5862 58.3828 34.3423C57.6267 35.0984 57.2014 36.1235 57.2 37.1928C57.2 37.8735 56.9296 38.5264 56.4482 39.0077C55.9669 39.4891 55.3141 39.7595 54.6333 39.7595H51.7C51.0193 39.7595 50.3664 39.4891 49.8851 39.0077C49.4037 38.5264 49.1333 37.8735 49.1333 37.1928V36.8261H53.5333C53.9223 36.8261 54.2954 36.6716 54.5704 36.3966C54.8455 36.1215 55 35.7485 55 35.3595V31.6928C55 31.4983 54.9227 31.3118 54.7852 31.1743C54.6477 31.0367 54.4612 30.9595 54.2667 30.9595C54.0722 30.9595 53.8856 31.0367 53.7481 31.1743C53.6106 31.3118 53.5333 31.4983 53.5333 31.6928V32.4261H52.0667V31.6928C52.0667 31.4983 51.9894 31.3118 51.8519 31.1743C51.7144 31.0367 51.5278 30.9595 51.3333 30.9595C51.1388 30.9595 50.9523 31.0367 50.8148 31.1743C50.6773 31.3118 50.6 31.4983 50.6 31.6928V32.4261H49.1333V31.6928C49.1333 31.4983 49.0561 31.3118 48.9185 31.1743C48.781 31.0367 48.5945 30.9595 48.4 30.9595C48.2055 30.9595 48.019 31.0367 47.8815 31.1743C47.7439 31.3118 47.6667 31.4983 47.6667 31.6928V32.4261H46.2V31.6928C46.2 31.4983 46.1227 31.3118 45.9852 31.1743C45.8477 31.0367 45.6612 30.9595 45.4667 30.9595C45.2722 30.9595 45.0856 31.0367 44.9481 31.1743C44.8106 31.3118 44.7333 31.4983 44.7333 31.6928V32.4261H43.2667V31.6928C43.2667 31.4983 43.1894 31.3118 43.0519 31.1743C42.9144 31.0367 42.7278 30.9595 42.5333 30.9595C42.3388 30.9595 42.1523 31.0367 42.0148 31.1743C41.8773 31.3118 41.8 31.4983 41.8 31.6928V35.3595C41.8 35.7485 41.9545 36.1215 42.2296 36.3966C42.5046 36.6716 42.8777 36.8261 43.2667 36.8261H47.6667V37.1928C47.6667 38.13 47.993 39.0379 48.5914 39.7595H35.9333C35.1554 39.7595 34.4093 40.0685 33.8592 40.6186C33.309 41.1687 33 41.9148 33 42.6928V69.0928C33 69.8708 33.309 70.6169 33.8592 71.167C34.4093 71.7171 35.1554 72.0261 35.9333 72.0261H36.6667V72.7595C36.6667 73.3429 36.8985 73.9025 37.311 74.3151C37.7236 74.7277 38.2832 74.9595 38.8667 74.9595H43.2667C43.8501 74.9595 44.4097 74.7277 44.8223 74.3151C45.2349 73.9025 45.4667 73.3429 45.4667 72.7595V72.0261H64.5333V72.7595C64.5333 73.3429 64.7651 73.9025 65.1777 74.3151C65.5903 74.7277 66.1499 74.9595 66.7333 74.9595H71.1333C71.7168 74.9595 72.2764 74.7277 72.689 74.3151C73.1015 73.9025 73.3333 73.3429 73.3333 72.7595V72.0261H74.0667C74.8446 72.0261 75.5907 71.7171 76.1408 71.167C76.691 70.6169 77 69.8708 77 69.0928V42.6928C77 41.9148 76.691 41.1687 76.1408 40.6186C75.5907 40.0685 74.8446 39.7595 74.0667 39.7595ZM43.2667 33.8928H53.5333V35.3595H43.2667V33.8928ZM58.6667 37.1928C58.6667 36.5121 58.9371 35.8592 59.4184 35.3779C59.8998 34.8966 60.5526 34.6261 61.2333 34.6261H64.1667C64.8474 34.6261 65.5002 34.8966 65.9816 35.3779C66.4629 35.8592 66.7333 36.5121 66.7333 37.1928V39.7595H57.7419C58.3402 39.038 58.6673 38.13 58.6667 37.1928ZM44 72.7595C44 72.954 43.9227 73.1405 43.7852 73.278C43.6477 73.4155 43.4612 73.4928 43.2667 73.4928H38.8667C38.6722 73.4928 38.4856 73.4155 38.3481 73.278C38.2106 73.1405 38.1333 72.954 38.1333 72.7595V72.0261H44V72.7595ZM71.8667 72.7595C71.8667 72.954 71.7894 73.1405 71.6519 73.278C71.5144 73.4155 71.3278 73.4928 71.1333 73.4928H66.7333C66.5388 73.4928 66.3523 73.4155 66.2148 73.278C66.0773 73.1405 66 72.954 66 72.7595V72.0261H71.8667V72.7595ZM75.5333 69.0928C75.5333 69.4818 75.3788 69.8548 75.1038 70.1299C74.8287 70.405 74.4557 70.5595 74.0667 70.5595H35.9333C35.5443 70.5595 35.1713 70.405 34.8962 70.1299C34.6212 69.8548 34.4667 69.4818 34.4667 69.0928V42.6928C34.4667 42.3038 34.6212 41.9308 34.8962 41.6557C35.1713 41.3807 35.5443 41.2261 35.9333 41.2261H74.0667C74.4557 41.2261 74.8287 41.3807 75.1038 41.6557C75.3788 41.9308 75.5333 42.3038 75.5333 42.6928V69.0928Z" fill="white"/>
<path d="M57.2003 44.1597H38.1336C37.5501 44.1597 36.9905 44.3915 36.578 44.804C36.1654 45.2166 35.9336 45.7762 35.9336 46.3597V65.4263C35.9336 66.0098 36.1654 66.5694 36.578 66.982C36.9905 67.3945 37.5501 67.6263 38.1336 67.6263H57.2003C57.7837 67.6263 58.3433 67.3945 58.7559 66.982C59.1685 66.5694 59.4003 66.0098 59.4003 65.4263V46.3597C59.4003 45.7762 59.1685 45.2166 58.7559 44.804C58.3433 44.3915 57.7837 44.1597 57.2003 44.1597ZM56.8967 45.6263L55.4168 47.1062C54.7782 46.5392 54.0802 46.0431 53.3349 45.6263H56.8967ZM50.6003 55.893C50.5981 56.4151 50.4536 56.927 50.1845 57.3736L48.7039 55.893L50.1845 54.4124C50.4543 54.8597 50.5981 55.3709 50.6003 55.893ZM44.7336 55.893C44.7358 55.3709 44.8803 54.859 45.1494 54.4124L46.63 55.893L45.1494 57.3736C44.8798 56.9266 44.7361 56.415 44.7336 55.893ZM46.1863 53.3755C46.6323 53.1035 47.1446 52.9596 47.6669 52.9596C48.1893 52.9596 48.7015 53.1035 49.1475 53.3755L47.6669 54.8561L46.1863 53.3755ZM47.6669 56.9299L49.1475 58.4105C48.7015 58.6825 48.1893 58.8264 47.6669 58.8264C47.1446 58.8264 46.6323 58.6825 46.1863 58.4105L47.6669 56.9299ZM50.2123 52.3099C49.4701 51.7782 48.58 51.4922 47.6669 51.4922C46.7539 51.4922 45.8638 51.7782 45.1215 52.3099L43.5522 50.7406C44.7188 49.8032 46.1704 49.2923 47.6669 49.2923C49.1634 49.2923 50.6151 49.8032 51.7817 50.7406L50.2123 52.3099ZM44.0846 53.3469C43.5529 54.0891 43.2669 54.9792 43.2669 55.8923C43.2669 56.8053 43.5529 57.6954 44.0846 58.4377L42.5153 60.007C41.5779 58.8404 41.0669 57.3888 41.0669 55.8923C41.0669 54.3958 41.5779 52.9441 42.5153 51.7775L44.0846 53.3469ZM45.1215 59.4746C45.8638 60.0063 46.7539 60.2923 47.6669 60.2923C48.58 60.2923 49.4701 60.0063 50.2123 59.4746L51.7817 61.0439C50.6151 61.9813 49.1634 62.4923 47.6669 62.4923C46.1704 62.4923 44.7188 61.9813 43.5522 61.0439L45.1215 59.4746ZM51.2493 58.4377C51.781 57.6954 52.0669 56.8053 52.0669 55.8923C52.0669 54.9792 51.781 54.0891 51.2493 53.3469L52.8186 51.7775C53.756 52.9441 54.2669 54.3958 54.2669 55.8923C54.2669 57.3888 53.756 58.8404 52.8186 60.007L51.2493 58.4377ZM52.8252 49.6971C51.3782 48.488 49.5525 47.8256 47.6669 47.8256C45.7813 47.8256 43.9556 48.488 42.5087 49.6971L40.954 48.1424C42.8139 46.5197 45.1986 45.6256 47.6669 45.6256C50.1352 45.6256 52.52 46.5197 54.3799 48.1424L52.8252 49.6971ZM41.4717 50.7347C40.2627 52.1817 39.6003 54.0074 39.6003 55.893C39.6003 57.7786 40.2627 59.6043 41.4717 61.0513L39.9171 62.6059C38.2943 60.746 37.4003 58.3613 37.4003 55.893C37.4003 53.4247 38.2943 51.04 39.9171 49.1801L41.4717 50.7347ZM42.5087 62.0882C43.9556 63.2973 45.7813 63.9596 47.6669 63.9596C49.5525 63.9596 51.3782 63.2973 52.8252 62.0882L54.3799 63.6429C52.52 65.2656 50.1352 66.1597 47.6669 66.1597C45.1986 66.1597 42.8139 65.2656 40.954 63.6429L42.5087 62.0882ZM53.8621 61.0513C55.0712 59.6043 55.7335 57.7786 55.7335 55.893C55.7335 54.0074 55.0712 52.1817 53.8621 50.7347L55.4168 49.1801C57.0395 51.04 57.9336 53.4247 57.9336 55.893C57.9336 58.3613 57.0395 60.746 55.4168 62.6059L53.8621 61.0513ZM39.9171 47.1062L38.4372 45.6263H41.999C41.2537 46.0431 40.5556 46.5392 39.9171 47.1062ZM37.4003 46.6633L38.8801 48.1431C38.3133 48.7811 37.8168 49.48 37.4003 50.2251V46.6633ZM38.8801 63.6429L37.4003 65.1227V61.5609C37.817 62.3063 38.3132 63.0043 38.8801 63.6429ZM38.4372 66.1597L39.9171 64.6798C40.5551 65.2467 41.2539 65.7431 41.999 66.1597H38.4372ZM55.4168 64.6798L56.8967 66.1597H53.3349C54.0802 65.7429 54.7782 65.2468 55.4168 64.6798ZM57.9336 65.1198L56.4537 63.6399C57.0206 63.0019 57.5171 62.3053 57.9336 61.5609V65.1198ZM56.4537 48.1431L57.9336 46.6633V50.2251C57.5169 49.4797 57.0207 48.7817 56.4537 48.1431ZM63.2136 51.053L65.1687 52.5197C65.55 52.8043 66.0128 52.9586 66.4887 52.9597H68.4437C68.9196 52.9589 69.3825 52.8046 69.7637 52.5197L71.7195 51.053C71.9925 50.8478 72.2141 50.582 72.367 50.2766C72.5198 49.9712 72.5997 49.6345 72.6003 49.293V46.3597C72.6003 45.7762 72.3685 45.2166 71.9559 44.804C71.5433 44.3915 70.9837 44.1597 70.4003 44.1597H64.5336C63.9501 44.1597 63.3905 44.3915 62.978 44.804C62.5654 45.2166 62.3336 45.7762 62.3336 46.3597V49.293C62.3341 49.6345 62.4138 49.9711 62.5665 50.2765C62.7192 50.5819 62.9407 50.8477 63.2136 51.053ZM63.8003 46.3597C63.8003 46.1652 63.8775 45.9786 64.015 45.8411C64.1526 45.7036 64.3391 45.6263 64.5336 45.6263H70.4003C70.5948 45.6263 70.7813 45.7036 70.9188 45.8411C71.0563 45.9786 71.1336 46.1652 71.1336 46.3597V49.293C71.1336 49.524 71.0243 49.7403 70.8403 49.8797L68.8837 51.3463C68.7569 51.4417 68.6021 51.493 68.4437 51.493H66.4894C66.331 51.493 66.1763 51.4417 66.0494 51.3463L64.0936 49.8797C63.9095 49.7403 63.8003 49.524 63.8003 49.293V46.3597ZM65.2669 55.893C65.2669 55.3095 65.0351 54.7499 64.6226 54.3374C64.21 53.9248 63.6504 53.693 63.0669 53.693C62.4835 53.693 61.9239 53.9248 61.5113 54.3374C61.0987 54.7499 60.8669 55.3095 60.8669 55.893C60.8669 56.4765 61.0987 57.0361 61.5113 57.4486C61.9239 57.8612 62.4835 58.093 63.0669 58.093C63.6504 58.093 64.21 57.8612 64.6226 57.4486C65.0351 57.0361 65.2669 56.4765 65.2669 55.893ZM62.3336 55.893C62.3336 55.6985 62.4109 55.512 62.5484 55.3745C62.6859 55.2369 62.8724 55.1597 63.0669 55.1597C63.2614 55.1597 63.4479 55.2369 63.5855 55.3745C63.723 55.512 63.8003 55.6985 63.8003 55.893C63.8003 56.0875 63.723 56.274 63.5855 56.4115C63.4479 56.5491 63.2614 56.6263 63.0669 56.6263C62.8724 56.6263 62.6859 56.5491 62.5484 56.4115C62.4109 56.274 62.3336 56.0875 62.3336 55.893ZM71.8669 53.693C71.2835 53.693 70.7239 53.9248 70.3113 54.3374C69.8987 54.7499 69.6669 55.3095 69.6669 55.893C69.6669 56.4765 69.8987 57.0361 70.3113 57.4486C70.7239 57.8612 71.2835 58.093 71.8669 58.093C72.4504 58.093 73.01 57.8612 73.4226 57.4486C73.8351 57.0361 74.0669 56.4765 74.0669 55.893C74.0669 55.3095 73.8351 54.7499 73.4226 54.3374C73.01 53.9248 72.4504 53.693 71.8669 53.693ZM71.8669 56.6263C71.6724 56.6263 71.4859 56.5491 71.3484 56.4115C71.2109 56.274 71.1336 56.0875 71.1336 55.893C71.1336 55.6985 71.2109 55.512 71.3484 55.3745C71.4859 55.2369 71.6724 55.1597 71.8669 55.1597C72.0614 55.1597 72.2479 55.2369 72.3855 55.3745C72.523 55.512 72.6003 55.6985 72.6003 55.893C72.6003 56.0875 72.523 56.274 72.3855 56.4115C72.2479 56.5491 72.0614 56.6263 71.8669 56.6263ZM71.1336 60.293H63.8003C63.2168 60.293 62.6572 60.5248 62.2446 60.9374C61.832 61.3499 61.6003 61.9095 61.6003 62.493V65.4263C61.6003 66.0098 61.832 66.5694 62.2446 66.982C62.6572 67.3945 63.2168 67.6263 63.8003 67.6263H71.1336C71.7171 67.6263 72.2766 67.3945 72.6892 66.982C73.1018 66.5694 73.3336 66.0098 73.3336 65.4263V62.493C73.3336 61.9095 73.1018 61.3499 72.6892 60.9374C72.2766 60.5248 71.7171 60.293 71.1336 60.293ZM71.8669 65.4263C71.8669 65.6208 71.7897 65.8074 71.6521 65.9449C71.5146 66.0824 71.3281 66.1597 71.1336 66.1597H63.8003C63.6058 66.1597 63.4192 66.0824 63.2817 65.9449C63.1442 65.8074 63.0669 65.6208 63.0669 65.4263V62.493C63.0669 62.2985 63.1442 62.112 63.2817 61.9745C63.4192 61.8369 63.6058 61.7597 63.8003 61.7597H71.1336C71.3281 61.7597 71.5146 61.8369 71.6521 61.9745C71.7897 62.112 71.8669 62.2985 71.8669 62.493V65.4263Z" fill="white"/>
<path d="M65.9999 49.2928C66.1944 49.2928 66.3809 49.2155 66.5184 49.078C66.6559 48.9405 66.7332 48.7539 66.7332 48.5594V47.8261C66.7332 47.6316 66.6559 47.4451 66.5184 47.3076C66.3809 47.17 66.1944 47.0928 65.9999 47.0928C65.8054 47.0928 65.6189 47.17 65.4813 47.3076C65.3438 47.4451 65.2665 47.6316 65.2665 47.8261V48.5594C65.2665 48.7539 65.3438 48.9405 65.4813 49.078C65.6189 49.2155 65.8054 49.2928 65.9999 49.2928ZM68.9332 49.2928C69.1277 49.2928 69.3142 49.2155 69.4517 49.078C69.5893 48.9405 69.6665 48.7539 69.6665 48.5594V47.8261C69.6665 47.6316 69.5893 47.4451 69.4517 47.3076C69.3142 47.17 69.1277 47.0928 68.9332 47.0928C68.7387 47.0928 68.5522 47.17 68.4147 47.3076C68.2771 47.4451 68.1999 47.6316 68.1999 47.8261V48.5594C68.1999 48.7539 68.2771 48.9405 68.4147 49.078C68.5522 49.2155 68.7387 49.2928 68.9332 49.2928ZM65.9999 63.2261H65.2665C65.072 63.2261 64.8855 63.3034 64.748 63.4409C64.6105 63.5784 64.5332 63.7649 64.5332 63.9594C64.5332 64.1539 64.6105 64.3405 64.748 64.478C64.8855 64.6155 65.072 64.6928 65.2665 64.6928H65.9999C66.1944 64.6928 66.3809 64.6155 66.5184 64.478C66.6559 64.3405 66.7332 64.1539 66.7332 63.9594C66.7332 63.7649 66.6559 63.5784 66.5184 63.4409C66.3809 63.3034 66.1944 63.2261 65.9999 63.2261ZM69.6665 63.2261H68.9332C68.7387 63.2261 68.5522 63.3034 68.4147 63.4409C68.2771 63.5784 68.1999 63.7649 68.1999 63.9594C68.1999 64.1539 68.2771 64.3405 68.4147 64.478C68.5522 64.6155 68.7387 64.6928 68.9332 64.6928H69.6665C69.861 64.6928 70.0476 64.6155 70.1851 64.478C70.3226 64.3405 70.3999 64.1539 70.3999 63.9594C70.3999 63.7649 70.3226 63.5784 70.1851 63.4409C70.0476 63.3034 69.861 63.2261 69.6665 63.2261Z" fill="white"/>
</svg>
