<svg width="110" height="110" viewBox="0 0 110 110" fill="none" xmlns="http://www.w3.org/2000/svg">
<circle cx="55" cy="55" r="55" fill="#C8102E"/>
<circle cx="55" cy="55" r="54.5" stroke="#BD2941" stroke-opacity="0.38"/>
<circle cx="55" cy="55" r="46" stroke="white" stroke-opacity="0.38" stroke-dasharray="2 2"/>
<path d="M32.9916 31.9365C32.7286 31.9365 32.4764 32.041 32.2904 32.227C32.1045 32.4129 32 32.6651 32 32.9281V45.9668C32 46.2298 32.1045 46.482 32.2904 46.6679C32.4764 46.8539 32.7286 46.9584 32.9916 46.9584C33.2546 46.9584 33.5068 46.8539 33.6928 46.6679C33.8787 46.482 33.9832 46.2298 33.9832 45.9668V33.9197H62.244V45.9668C62.244 46.2298 62.3485 46.482 62.5345 46.6679C62.7204 46.8539 62.9726 46.9584 63.2356 46.9584C63.4986 46.9584 63.7508 46.8539 63.9368 46.6679C64.1228 46.482 64.2272 46.2298 64.2272 45.9668V32.9281C64.2272 32.6651 64.1228 32.4129 63.9368 32.227C63.7508 32.041 63.4986 31.9365 63.2356 31.9365H32.9916Z" fill="white"/>
<path fill-rule="evenodd" clip-rule="evenodd" d="M66.0184 33.3439C65.9103 33.2707 65.7887 33.2195 65.6608 33.1934C65.5328 33.1673 65.4009 33.1667 65.2728 33.1916C65.1446 33.2166 65.0226 33.2666 64.9138 33.3389C64.805 33.4111 64.7115 33.5042 64.6388 33.6126C64.566 33.7211 64.5154 33.8428 64.4899 33.9709C64.4643 34.099 64.4643 34.2309 64.4899 34.3589C64.5154 34.487 64.566 34.6088 64.6388 34.7172C64.7115 34.8257 64.8049 34.9187 64.9137 34.991L85.5461 48.8269V67.8821H66.4577C66.1947 67.8821 65.9425 67.9866 65.7565 68.1725C65.5705 68.3585 65.4661 68.6107 65.4661 68.8737C65.4661 69.1367 65.5705 69.3889 65.7565 69.5749C65.9425 69.7608 66.1947 69.8653 66.4577 69.8653H76.6216V72.0964C76.6216 72.3594 76.7261 72.6116 76.9121 72.7976C77.098 72.9836 77.3503 73.088 77.6133 73.088H83.5629C83.8259 73.088 84.0781 72.9836 84.2641 72.7976C84.45 72.6116 84.5545 72.3594 84.5545 72.0964V69.8653H86.5377C86.8007 69.8653 87.0529 69.7608 87.2389 69.5749C87.4248 69.3889 87.5293 69.1367 87.5293 68.8737V48.8269C87.5293 48.1655 87.1996 47.5477 86.6508 47.1798L66.0184 33.3439ZM82.5713 69.8653H78.6049V71.1048H82.5713V69.8653Z" fill="white"/>
<path d="M44.2921 60.1973C44.0291 60.1973 43.7769 60.3017 43.591 60.4877C43.405 60.6737 43.3005 60.9259 43.3005 61.1889V67.6343C43.3005 67.8973 43.405 68.1495 43.591 68.3355C43.7769 68.5215 44.0291 68.6259 44.2921 68.6259C44.5551 68.6259 44.8073 68.5215 44.9933 68.3355C45.1793 68.1495 45.2837 67.8973 45.2837 67.6343V62.1805H50.449V67.6343C50.449 67.8973 50.5535 68.1495 50.7394 68.3355C50.9254 68.5215 51.1776 68.6259 51.4406 68.6259C51.7036 68.6259 51.9558 68.5215 52.1418 68.3355C52.3278 68.1495 52.4322 67.8973 52.4322 67.6343V61.1889C52.4322 60.9259 52.3278 60.6737 52.1418 60.4877C51.9558 60.3017 51.7036 60.1973 51.4406 60.1973H44.2921ZM37.4545 64.8013C37.1915 64.8013 36.9393 64.9058 36.7533 65.0917C36.5674 65.2777 36.4629 65.5299 36.4629 65.7929C36.4629 66.0559 36.5674 66.3081 36.7533 66.4941C36.9393 66.68 37.1915 66.7845 37.4545 66.7845H40.5627C40.8257 66.7845 41.0779 66.68 41.2639 66.4941C41.4498 66.3081 41.5543 66.0559 41.5543 65.7929C41.5543 65.5299 41.4498 65.2777 41.2639 65.0917C41.0779 64.9058 40.8257 64.8013 40.5627 64.8013H37.4545ZM54.8597 64.8013C54.5967 64.8013 54.3445 64.9058 54.1585 65.0917C53.9725 65.2777 53.8681 65.5299 53.8681 65.7929C53.8681 66.0559 53.9725 66.3081 54.1585 66.4941C54.3445 66.68 54.5967 66.7845 54.8597 66.7845H58.2782C58.5412 66.7845 58.7935 66.68 58.9794 66.4941C59.1654 66.3081 59.2699 66.0559 59.2699 65.7929C59.2699 65.5299 59.1654 65.2777 58.9794 65.0917C58.7935 64.9058 58.5412 64.8013 58.2782 64.8013H54.8597Z" fill="white"/>
<path fill-rule="evenodd" clip-rule="evenodd" d="M41.4213 48.2979C41.1583 48.2979 40.9061 48.4023 40.7201 48.5883C40.5342 48.7742 40.4297 49.0265 40.4297 49.2895V55.2391C40.4297 55.5021 40.5342 55.7543 40.7201 55.9403C40.9061 56.1262 41.1583 56.2307 41.4213 56.2307H54.3122C54.5752 56.2307 54.8274 56.1262 55.0134 55.9403C55.1993 55.7543 55.3038 55.5021 55.3038 55.2391V49.2895C55.3038 49.0265 55.1993 48.7742 55.0134 48.5883C54.8274 48.4023 54.5752 48.2979 54.3122 48.2979H41.4213ZM42.4129 54.2475V50.2811H53.3206V54.2475H42.4129Z" fill="white"/>
<path fill-rule="evenodd" clip-rule="evenodd" d="M33.9832 49.0315C33.9832 48.7685 33.8787 48.5163 33.6928 48.3303C33.5068 48.1444 33.2546 48.0399 32.9916 48.0399C32.7286 48.0399 32.4764 48.1444 32.2904 48.3303C32.1045 48.5163 32 48.7685 32 49.0315V53.937C32.0001 54.1548 32.0719 54.3666 32.2043 54.5396C32.3368 54.7125 32.5225 54.837 32.7328 54.8939L35.9868 55.7739L33.66 59.548C33.5634 59.7045 33.5122 59.8847 33.5122 60.0686V64.2879H32.9916C32.7286 64.2879 32.4764 64.3924 32.2904 64.5783C32.1045 64.7643 32 65.0165 32 65.2795V71.1047C32 71.3677 32.1045 71.6199 32.2904 71.8059C32.4764 71.9918 32.7286 72.0963 32.9916 72.0963H33.9832V75.0711C33.9832 75.3341 34.0877 75.5863 34.2736 75.7723C34.4596 75.9582 34.7118 76.0627 34.9748 76.0627H42.0529C42.3159 76.0627 42.5681 75.9582 42.7541 75.7723C42.94 75.5863 43.0445 75.3341 43.0445 75.0711V72.0963H53.6785V75.0711C53.6785 75.3341 53.783 75.5863 53.969 75.7723C54.1549 75.9582 54.4071 76.0627 54.6701 76.0627H61.7482C62.0112 76.0627 62.2634 75.9582 62.4494 75.7723C62.6354 75.5863 62.7398 75.3341 62.7398 75.0711V72.0963H63.2356C63.4986 72.0963 63.7508 71.9918 63.9368 71.8059C64.1228 71.6199 64.2272 71.3677 64.2272 71.1047V65.28C64.2272 65.017 64.1228 64.7648 63.9368 64.5788C63.7508 64.3928 63.4986 64.2884 63.2356 64.2884H62.4126V60.0681C62.4126 59.8842 62.3614 59.704 62.2648 59.5475L59.9494 55.7923L63.4796 54.8979C63.6933 54.8436 63.8828 54.7197 64.0182 54.5457C64.1536 54.3717 64.2272 54.1575 64.2272 53.937V49.032C64.2272 48.769 64.1228 48.5168 63.9368 48.3308C63.7508 48.1449 63.4986 48.0404 63.2356 48.0404C62.9726 48.0404 62.7204 48.1449 62.5345 48.3308C62.3485 48.5168 62.244 48.769 62.244 49.032V53.1655L59.3882 53.8894V37.39C59.3882 37.1271 59.2837 36.8748 59.0978 36.6889C58.9118 36.5029 58.6596 36.3984 58.3966 36.3984C58.1336 36.3984 57.8814 36.5029 57.6954 36.6889C57.5094 36.8748 57.405 37.1271 57.405 37.39V42.7685L55.8283 41.9083C55.0999 41.5108 54.2833 41.3025 53.4534 41.3024H41.8169C40.789 41.3024 39.7865 41.6219 38.9482 42.2167L38.5198 42.5201V37.39C38.5198 37.1271 38.4153 36.8748 38.2294 36.6889C38.0434 36.5029 37.7912 36.3984 37.5282 36.3984C37.2652 36.3984 37.013 36.5029 36.827 36.6889C36.6411 36.8748 36.5366 37.1271 36.5366 37.39V53.8681L33.9832 53.1779V49.0315ZM35.9664 74.0795V72.0963H41.0613V74.0795H35.9664ZM55.6617 74.0795V72.0963H60.7566V74.0795H55.6617ZM57.405 45.0279V55.1671C57.405 55.351 57.4562 55.5312 57.5527 55.6877L60.4294 60.3522V65.2815C60.4294 65.5445 60.5339 65.7967 60.7198 65.9826C60.9058 66.1686 61.158 66.2731 61.421 66.2731H62.244V70.1131H33.9832V66.2731H34.5038C34.7668 66.2731 35.019 66.1686 35.205 65.9826C35.3909 65.7967 35.4954 65.5445 35.4954 65.2815V60.3522L38.3721 55.6872C38.4686 55.5307 38.5198 55.3505 38.5198 55.1666V44.9525L40.0955 43.8345C40.5984 43.4778 41.1998 43.2862 41.8164 43.2861H53.4529C53.9508 43.2861 54.4408 43.4111 54.8779 43.6496L57.405 45.0279Z" fill="white"/>
</svg>
