<svg width="6" height="10" viewBox="0 0 6 10" fill="none" xmlns="http://www.w3.org/2000/svg">
<path d="M4.85896 5.44951L1.40825 8.89412C1.35157 8.95127 1.28414 8.99662 1.20985 9.02758C1.13555 9.05853 1.05587 9.07446 0.975384 9.07446C0.894901 9.07446 0.815214 9.05853 0.740921 9.02758C0.666627 8.99662 0.599197 8.95127 0.542521 8.89412C0.42897 8.7799 0.365234 8.62537 0.365234 8.46431C0.365234 8.30324 0.42897 8.14872 0.542521 8.03449L3.56037 4.98616L0.542521 1.96831C0.42897 1.85408 0.365234 1.69956 0.365234 1.53849C0.365234 1.37743 0.42897 1.22291 0.542521 1.10868C0.598985 1.05107 0.66632 1.00524 0.740623 0.973846C0.814926 0.942451 0.894721 0.926113 0.975384 0.925778C1.05605 0.926113 1.13584 0.942451 1.21015 0.973846C1.28445 1.00524 1.35178 1.05107 1.40825 1.10868L4.85896 4.5533C4.92085 4.61039 4.97024 4.67968 5.00402 4.7568C5.0378 4.83392 5.05523 4.9172 5.05523 5.0014C5.05523 5.0856 5.0378 5.16888 5.00402 5.246C4.97024 5.32313 4.92085 5.39242 4.85896 5.44951Z" fill="black"/>
</svg>
